<?xml version="1.0" encoding="UTF-8" standalone="no"?>
<!DOCTYPE svg PUBLIC "-//W3C//DTD SVG 1.1//EN" "http://www.w3.org/Graphics/SVG/1.1/DTD/svg11.dtd">
<svg width="100%" height="100%" viewBox="0 0 32 32" version="1.1" xmlns="http://www.w3.org/2000/svg" xmlns:xlink="http://www.w3.org/1999/xlink" xml:space="preserve" xmlns:serif="http://www.serif.com/" style="fill-rule:evenodd;clip-rule:evenodd;stroke-linejoin:round;stroke-miterlimit:2;">
    <g transform="matrix(0.124514,0,0,0.124514,0.00225681,0)">
        <path d="M255.153,37.938L134.897,252.976C132.414,257.416 126.035,257.442 123.515,253.024L0.875,37.958C-1.871,33.144 2.246,27.312 7.702,28.288L128.087,49.805C128.855,49.942 129.641,49.941 130.409,49.801L248.276,28.318C253.714,27.327 257.85,33.114 255.153,37.938Z" style="fill:url(#_Linear1);fill-rule:nonzero;"/>
    </g>
    <g transform="matrix(12.75,0,0,5.47996,-34.6797,-104.264)">
        <path d="M3.207,19.391L4.015,19.391C4.175,19.391 4.294,19.407 4.372,19.438C4.451,19.469 4.521,19.534 4.583,19.632C4.645,19.73 4.697,19.861 4.739,20.025C4.78,20.188 4.801,20.372 4.801,20.575C4.801,20.795 4.775,20.997 4.724,21.181C4.673,21.365 4.604,21.503 4.517,21.595C4.64,21.678 4.734,21.821 4.801,22.022C4.867,22.223 4.9,22.459 4.9,22.731C4.9,22.944 4.878,23.152 4.836,23.354C4.793,23.557 4.735,23.718 4.661,23.839C4.587,23.96 4.495,24.034 4.387,24.062C4.319,24.079 4.155,24.09 3.895,24.094L3.28,24.094L3.28,24.221L3.207,24.094L3.207,19.391ZM3.615,20.174L3.615,21.261L3.882,21.261C4.041,21.261 4.14,21.256 4.179,21.245C4.249,21.226 4.304,21.17 4.344,21.077C4.384,20.984 4.403,20.862 4.403,20.71C4.403,20.564 4.386,20.446 4.352,20.355C4.317,20.264 4.266,20.209 4.198,20.19C4.158,20.179 4.041,20.174 3.849,20.174L3.615,20.174ZM3.615,22.044L3.615,23.302L3.993,23.302C4.14,23.302 4.233,23.292 4.273,23.273C4.333,23.247 4.383,23.184 4.421,23.085C4.459,22.986 4.478,22.852 4.478,22.686C4.478,22.545 4.463,22.425 4.434,22.326C4.404,22.228 4.362,22.156 4.306,22.111C4.251,22.067 4.13,22.044 3.944,22.044L3.615,22.044Z" style="fill:rgb(29,26,11);fill-rule:nonzero;"/>
    </g>
    <g transform="matrix(12.75,0,0,5.47996,-33.75,-103.569)">
        <path d="M3.207,19.391L4.015,19.391C4.175,19.391 4.294,19.407 4.372,19.438C4.451,19.469 4.521,19.534 4.583,19.632C4.645,19.73 4.697,19.861 4.739,20.025C4.78,20.188 4.801,20.372 4.801,20.575C4.801,20.795 4.775,20.997 4.724,21.181C4.673,21.365 4.604,21.503 4.517,21.595C4.64,21.678 4.734,21.821 4.801,22.022C4.867,22.223 4.9,22.459 4.9,22.731C4.9,22.944 4.878,23.152 4.836,23.354C4.793,23.557 4.735,23.718 4.661,23.839C4.587,23.96 4.495,24.034 4.387,24.062C4.319,24.079 4.155,24.09 3.895,24.094L3.207,24.094L3.207,19.391ZM3.615,20.174L3.615,21.261L3.882,21.261C4.041,21.261 4.14,21.256 4.179,21.245C4.249,21.226 4.304,21.17 4.344,21.077C4.384,20.984 4.403,20.862 4.403,20.71C4.403,20.564 4.386,20.446 4.352,20.355C4.317,20.264 4.266,20.209 4.198,20.19C4.158,20.179 4.041,20.174 3.849,20.174L3.615,20.174ZM3.615,22.044L3.615,23.302L3.993,23.302C4.14,23.302 4.233,23.292 4.273,23.273C4.333,23.247 4.383,23.184 4.421,23.085C4.459,22.986 4.478,22.852 4.478,22.686C4.478,22.545 4.463,22.425 4.434,22.326C4.404,22.228 4.362,22.156 4.306,22.111C4.251,22.067 4.13,22.044 3.944,22.044L3.615,22.044Z" style="fill:rgb(255,219,24);fill-rule:nonzero;"/>
    </g>
    <defs>
        <linearGradient id="_Linear1" x1="0" y1="0" x2="1" y2="0" gradientUnits="userSpaceOnUse" gradientTransform="matrix(149.668,161.431,-161.431,149.668,-2.11935,45.6374)"><stop offset="0" style="stop-color:rgb(65,209,255);stop-opacity:1"/><stop offset="1" style="stop-color:rgb(189,52,254);stop-opacity:1"/></linearGradient>
    </defs>
</svg>
